<?xml version="1.0" standalone="no"?>
<!DOCTYPE svg PUBLIC "-//W3C//DTD SVG 20010904//EN"
 "http://www.w3.org/TR/2001/REC-SVG-20010904/DTD/svg10.dtd">
<svg version="1.0" xmlns="http://www.w3.org/2000/svg"
 width="1080.000000pt" height="1080.000000pt" viewBox="0 0 1080.000000 1080.000000"
 preserveAspectRatio="xMidYMid meet">

<g transform="translate(0.000000,1080.000000) scale(0.100000,-0.100000)"
fill="#000000" stroke="none">
<path d="M5220 10374 c-834 -31 -1659 -278 -2385 -712 -532 -318 -1039 -775
-1417 -1277 -317 -421 -574 -912 -742 -1417 -85 -255 -164 -575 -168 -681 -1
-43 24 -77 59 -77 41 0 59 31 72 121 16 106 88 390 142 556 332 1024 1003
1917 1894 2522 670 454 1411 723 2255 818 217 24 751 24 970 -1 610 -68 1162
-227 1670 -481 509 -255 926 -558 1315 -956 401 -411 688 -824 932 -1344 156
-333 265 -665 364 -1108 18 -80 26 -101 46 -114 28 -19 69 -10 87 19 13 21 -6
121 -70 375 -184 733 -519 1388 -1013 1983 -205 247 -547 570 -827 782 -718
543 -1602 884 -2519 972 -153 15 -511 26 -665 20z"/>
<path d="M5110 10004 c-19 -2 -84 -9 -145 -14 -1204 -116 -2313 -702 -3102
-1640 -689 -820 -1073 -1865 -1073 -2919 0 -547 72 -1004 235 -1496 462 -1399
1562 -2490 2971 -2949 802 -260 1682 -292 2504 -90 730 179 1397 526 1952
1013 144 127 391 378 499 508 380 455 671 977 854 1530 269 811 302 1696 94
2543 -323 1316 -1206 2422 -2419 3029 -509 255 -966 393 -1530 462 -127 16
-239 21 -485 24 -176 2 -336 1 -355 -1z m723 -139 c450 -43 883 -151 1294
-321 1315 -546 2293 -1678 2643 -3059 126 -497 169 -1087 115 -1575 -61 -548
-196 -1008 -440 -1505 -476 -968 -1281 -1730 -2277 -2156 -805 -344 -1705
-443 -2576 -283 -788 144 -1542 511 -2147 1044 -840 741 -1369 1751 -1500
2865 -24 203 -37 614 -25 794 61 929 397 1795 980 2525 657 823 1585 1390
2620 1601 140 28 372 63 500 74 167 15 643 12 813 -4z"/>
<path d="M5396 9087 c-10 -8 -19 -22 -20 -33 -5 -51 -31 -140 -44 -151 -9 -7
-13 -13 -9 -13 4 0 2 -11 -3 -25 -6 -16 -6 -25 0 -25 17 0 11 -38 -8 -52 -24
-17 -35 -58 -16 -58 13 0 12 -8 -3 -47 -3 -10 -14 -40 -23 -68 -15 -49 -17
-50 -60 -55 -39 -5 -42 -7 -22 -14 14 -5 21 -13 18 -22 -3 -8 1 -14 9 -14 18
0 21 -46 3 -52 -6 -2 -13 -13 -14 -24 -11 -77 -19 -106 -30 -111 -8 -3 -14
-13 -14 -22 0 -19 -34 -75 -71 -118 -24 -29 -32 -31 -137 -41 -61 -6 -128 -18
-148 -27 -20 -8 -47 -15 -59 -15 -13 0 -25 -7 -29 -15 -6 -18 -2 -18 44 -4 19
5 83 12 142 15 88 3 109 1 122 -12 20 -19 20 -66 1 -103 -8 -16 -12 -31 -9
-34 3 -3 -11 -11 -30 -18 -37 -13 -45 -24 -23 -32 6 -2 -3 -7 -20 -11 -34 -8
-43 -20 -20 -29 8 -4 7 -6 -3 -6 -8 -1 -22 -6 -30 -11 -12 -8 -12 -12 -2 -18
9 -6 -1 -13 -30 -22 -43 -13 -43 -14 -14 -19 28 -6 27 -7 -20 -20 l-49 -14 35
-7 c20 -4 26 -8 14 -9 -12 0 -31 -9 -42 -20 -12 -10 -56 -31 -97 -46 -42 -15
-74 -29 -72 -31 2 -2 30 5 63 17 82 28 314 88 314 80 0 -3 -7 -27 -17 -52 -15
-42 -20 -48 -54 -53 -72 -11 -340 -106 -461 -163 -123 -57 -159 -76 -121 -67
17 5 22 -1 27 -28 4 -18 18 -55 32 -83 l24 -50 -6 40 c-3 22 -14 55 -25 73
-10 18 -19 40 -19 48 0 9 31 30 78 51 122 57 218 52 280 -16 15 -16 28 -40 29
-54 1 -21 -6 -28 -43 -42 -25 -9 -43 -19 -41 -21 2 -2 31 7 63 20 128 49 374
100 547 112 93 7 97 6 97 -13 0 -18 -9 -21 -102 -26 -127 -8 -235 -27 -386
-68 -406 -108 -806 -381 -1072 -731 l-63 -83 63 68 c62 68 83 80 59 35 -7 -12
11 2 39 33 29 31 103 105 164 165 62 59 103 102 90 95 -33 -18 -27 4 11 38 35
32 154 114 179 124 9 3 18 1 20 -5 2 -5 49 15 103 46 247 138 589 236 824 236
62 0 71 -2 71 -18 0 -17 -12 -20 -118 -25 -142 -7 -290 -36 -432 -83 -111 -37
-367 -159 -410 -195 -20 -16 -15 -15 21 5 46 26 79 33 79 18 0 -5 7 -17 15
-28 14 -17 14 -16 0 13 -8 18 -15 35 -15 38 0 9 91 48 118 51 12 1 19 -2 16
-7 -6 -11 16 -73 23 -65 3 2 -1 14 -7 26 -6 12 -9 24 -6 27 7 7 66 -120 66
-139 -1 -7 -12 7 -25 32 -13 25 -24 41 -24 35 0 -5 6 -21 14 -35 8 -14 14 -30
15 -36 0 -21 -26 -43 -62 -49 -35 -7 -37 -5 -63 39 -38 65 -41 57 -4 -15 16
-34 28 -63 25 -66 -2 -3 -16 18 -30 46 -15 28 -29 51 -31 51 -3 0 4 -18 15
-40 27 -53 25 -68 -7 -75 -16 -4 -46 -13 -68 -21 -38 -14 -41 -14 -55 6 -8 12
-25 33 -38 48 -20 23 -19 22 3 -12 26 -41 32 -62 14 -50 -8 5 -8 1 0 -14 19
-36 13 -60 -20 -78 -31 -15 -32 -15 -63 15 -22 21 -33 27 -33 17 0 -8 3 -13 7
-11 4 2 7 -11 8 -30 1 -28 -5 -39 -37 -64 l-39 -31 -38 26 -39 26 38 -40 c25
-25 34 -41 26 -44 -13 -4 109 -96 219 -164 35 -21 85 -52 110 -68 26 -16 81
-43 123 -61 l75 -33 48 35 48 35 -3 149 c-3 82 -1 149 2 149 6 0 25 -202 24
-257 -1 -27 6 -28 48 -7 17 10 83 37 146 60 63 24 119 48 125 54 6 6 -41 61
-141 162 -84 84 -161 167 -173 183 -12 17 52 -45 143 -137 187 -191 184 -190
211 -68 15 72 122 489 157 615 18 68 21 97 17 195 -3 63 -2 131 2 150 5 25 8
8 10 -60 1 -52 3 -104 4 -115 1 -11 3 -30 4 -42 2 -22 7 -23 72 -23 210 0 529
-84 758 -199 363 -182 684 -490 884 -846 136 -241 230 -568 232 -804 1 -142
-18 -127 -32 25 -23 239 -77 443 -171 639 -53 112 -157 284 -175 291 -6 2 -47
-16 -91 -41 -44 -25 -87 -45 -96 -45 -26 0 -42 26 -33 52 4 13 7 26 6 29 0 4
9 15 21 25 l22 19 -19 -22 c-36 -43 0 -23 49 27 27 28 56 50 63 50 12 0 12 3
2 15 -10 12 -16 13 -27 4 -7 -7 -11 -14 -8 -17 7 -7 -45 -62 -58 -62 -5 0 -3
8 4 17 8 9 -2 5 -22 -10 -41 -31 -65 -34 -73 -9 -3 9 -19 26 -36 37 -16 11
-30 27 -30 35 0 21 57 88 94 111 l31 19 40 -38 c37 -34 37 -34 -5 11 l-45 49
-74 -79 c-41 -43 -69 -68 -62 -55 41 76 -82 -48 -137 -139 -45 -75 -202 -391
-202 -407 0 -6 14 -28 32 -48 l32 -36 166 5 c182 6 154 -6 -42 -19 -65 -4
-118 -10 -118 -15 0 -4 22 -56 49 -116 60 -135 77 -187 96 -293 8 -47 15 -86
15 -87 0 -2 9 -3 21 -3 11 0 17 4 14 10 -3 5 3 15 15 22 11 7 20 21 20 31 0
25 46 40 110 34 50 -5 52 -4 23 7 -40 14 -56 30 -23 24 14 -3 79 -19 145 -36
147 -37 330 -79 408 -93 37 -7 67 -19 85 -36 25 -23 27 -30 24 -86 -25 -484
-258 -977 -628 -1326 -349 -330 -803 -531 -1229 -543 -75 -3 -90 0 -90 12 0
12 22 16 115 21 223 13 448 73 669 180 187 91 307 171 460 308 l73 66 -81 77
c-45 43 -74 75 -64 72 19 -6 -35 49 -97 100 -25 21 -27 24 -7 12 15 -9 33 -14
40 -10 7 4 9 4 5 -1 -4 -4 17 -25 48 -46 58 -41 70 -47 58 -27 -4 6 25 -22 64
-63 67 -70 72 -73 88 -57 16 16 16 17 -4 12 -15 -4 -25 2 -38 21 -17 27 -17
27 7 46 13 10 32 21 41 24 9 3 20 15 23 26 6 17 12 19 33 14 15 -4 29 -9 31
-11 2 -2 -10 -22 -28 -44 -40 -50 -32 -53 12 -4 109 124 239 334 318 514 78
181 127 387 145 614 l7 88 -44 -7 c-24 -4 -67 -13 -96 -21 -28 -8 -118 -30
-200 -50 -169 -39 -399 -102 -426 -116 -12 -6 -16 -16 -12 -26 5 -14 4 -14
-12 0 -10 8 -25 18 -33 20 -13 5 80 37 154 53 15 3 26 8 23 11 -2 3 -37 -2
-76 -11 -39 -9 -77 -14 -84 -12 -7 3 -5 6 6 6 9 1 17 8 17 17 0 14 -3 14 -15
4 -13 -11 -15 -8 -16 21 -1 28 -4 23 -15 -26 -16 -65 -40 -139 -73 -225 -21
-53 -21 -54 -1 -30 11 14 20 29 20 34 0 5 3 7 6 3 3 -3 18 -1 34 5 21 7 36 6
58 -6 16 -8 49 -18 71 -22 32 -5 50 -16 77 -48 24 -28 33 -47 30 -61 -3 -11
-6 -25 -6 -31 0 -6 -15 -14 -32 -18 -23 -5 -29 -9 -20 -15 7 -4 -65 -6 -160
-3 l-174 5 -28 -44 c-16 -24 -80 -95 -142 -156 l-114 -113 73 -36 c135 -68
258 -136 253 -141 -2 -3 -79 34 -171 82 l-166 87 -34 -23 -35 -24 -1 -155 c-1
-172 -13 -161 -25 23 -3 59 -8 107 -9 107 -1 0 -31 -15 -66 -33 -35 -18 -106
-49 -156 -67 -72 -27 -93 -39 -93 -53 0 -10 55 -76 122 -145 l122 -127 -125
123 -126 123 -28 -98 c-52 -185 -64 -228 -100 -378 -19 -82 -42 -170 -49 -195
-8 -25 -17 -62 -21 -82 -13 -78 -31 -41 -79 165 -79 333 -117 479 -137 535
-21 58 -24 82 -10 82 5 0 12 -15 16 -33 19 -87 91 -314 130 -407 15 -36 35
-87 45 -115 11 -32 20 -45 24 -35 47 121 191 588 184 596 -2 1 -41 -6 -87 -16
-83 -18 -107 -18 -96 1 4 5 2 9 -3 9 -6 0 -12 -6 -15 -13 -9 -25 -258 38 -362
91 -22 11 -68 31 -101 45 l-62 25 -12 -117 c-21 -205 -30 -218 -24 -35 l6 170
-42 27 -41 28 -127 -66 c-137 -71 -212 -106 -212 -99 0 2 73 40 163 85 89 45
163 83 165 84 2 2 -18 24 -45 49 -37 36 -53 45 -71 41 -17 -4 -22 -2 -16 7 4
7 -9 -2 -29 -21 -20 -19 -34 -37 -32 -41 3 -4 -34 -50 -82 -101 -48 -52 -98
-107 -112 -122 l-26 -29 38 22 c59 35 43 15 -20 -24 -81 -50 -149 -116 -131
-127 7 -5 8 -9 2 -9 -13 0 -144 -118 -144 -129 0 -18 106 -115 210 -193 282
-211 645 -348 968 -365 75 -4 116 -10 123 -19 19 -24 -14 -27 -139 -14 -441
44 -806 208 -1142 513 -233 210 -406 461 -525 758 -25 63 -57 155 -71 206 -27
101 -64 332 -64 406 0 40 3 47 20 47 18 0 20 -7 20 -84 0 -286 153 -712 354
-986 56 -76 187 -230 196 -230 9 0 94 91 132 140 22 29 26 31 21 11 -5 -20 -4
-22 13 -13 37 20 71 68 149 207 43 77 85 146 94 153 9 8 10 11 3 7 -7 -4 0 18
15 49 15 30 29 54 31 52 2 -2 -4 -18 -13 -35 -8 -17 -13 -31 -11 -31 9 0 37
60 32 69 -3 4 0 24 6 44 10 33 9 39 -16 72 l-27 35 -132 1 c-142 2 -143 1 59
24 l52 6 -48 107 c-26 59 -55 131 -64 160 -10 28 -22 52 -28 52 -6 0 -88 -76
-183 -170 -95 -93 -177 -170 -181 -170 -5 0 66 75 156 167 l165 166 -105 34
c-89 29 -481 134 -615 164 -22 5 -51 12 -65 15 l-25 6 25 13 c14 7 47 16 73
19 27 4 67 14 90 22 22 8 91 23 151 34 61 11 149 31 196 44 116 33 140 38 140
28 0 -5 -27 -16 -61 -26 -99 -27 -369 -130 -361 -136 21 -19 561 -200 594
-200 14 0 17 4 10 18 -20 39 -44 154 -39 184 28 179 70 314 142 459 l43 86
-112 8 c-209 14 -224 22 -41 24 l170 1 28 39 27 39 -61 114 c-99 182 -114 214
-95 199 15 -13 16 -12 6 13 -14 37 -13 39 13 33 15 -4 1 13 -43 54 -35 32 -69
59 -74 59 -5 0 -26 18 -46 40 -35 37 -70 56 -54 28 4 -7 -1 -5 -12 4 -18 16
-19 15 -21 -25 -3 -52 -55 -112 -84 -97 -16 9 -17 7 -9 -20 9 -33 -14 -74 -50
-85 -11 -4 -18 -11 -14 -16 7 -12 -47 -139 -59 -139 -5 0 -3 -7 4 -16 12 -15
11 -16 -7 -10 -18 5 -21 2 -22 -25 -1 -41 -23 -62 -63 -62 -30 0 -30 -1 -13
-15 18 -13 17 -14 -6 -7 -57 17 -131 55 -125 65 3 5 0 7 -9 4 -11 -4 -14 2
-12 25 3 42 -5 30 -47 -69 -75 -181 -137 -431 -137 -558 0 -72 -11 -122 -26
-122 -19 0 -18 64 1 213 19 144 62 314 114 447 21 55 35 100 30 100 -26 0 11
80 137 298 41 70 19 48 -34 -35 -103 -161 -198 -377 -248 -561 -24 -89 -53
-269 -60 -368 -6 -84 -9 -94 -26 -94 -18 0 -19 5 -13 78 17 203 68 444 125
590 33 85 34 110 2 32 -12 -28 -28 -53 -36 -56 -8 -3 -41 3 -73 13 l-58 18 0
75 c0 42 7 97 16 125 31 97 96 205 112 188 3 -3 3 4 0 15 -2 11 3 33 13 48 10
16 13 24 6 19 -24 -22 -105 -176 -163 -314 -59 -139 -61 -145 -43 -159 15 -12
15 -13 2 -9 -19 7 -26 -9 -62 -135 -30 -106 -29 -104 -63 -111 -16 -3 -36 -9
-46 -13 -15 -6 -17 -3 -11 20 5 23 4 25 -12 19 -11 -3 -22 -11 -26 -17 -6 -8
-11 -7 -17 3 -5 7 -13 11 -19 7 -6 -3 -13 0 -16 6 -5 10 -7 10 -12 1 -8 -18
-22 -16 -27 5 -4 14 -6 14 -12 -5 -9 -27 -22 -30 -28 -5 -4 14 -5 13 -6 -4 0
-11 -14 -33 -31 -47 -16 -15 -30 -36 -30 -48 0 -15 -15 -27 -62 -48 -35 -15
-68 -26 -75 -24 -6 3 -14 19 -16 36 l-3 32 -8 -32 c-5 -18 -12 -31 -17 -30 -5
1 -15 -9 -22 -23 -16 -32 -139 -102 -236 -134 -42 -13 -146 -43 -231 -65 -241
-64 -230 -60 -230 -80 0 -16 16 -21 98 -36 199 -36 448 -123 463 -162 4 -10
32 -29 63 -42 71 -29 81 -48 96 -176 21 -186 72 -380 157 -600 34 -87 54 -126
38 -75 -4 14 -8 41 -10 60 -2 19 -24 91 -49 160 -42 114 -97 336 -95 378 1 9
11 -30 23 -88 23 -111 86 -323 94 -316 2 3 -10 50 -27 105 -25 81 -29 104 -20
119 9 14 9 34 -1 83 -16 80 -18 138 -5 140 6 0 15 -13 20 -29 10 -30 57 -76
67 -66 3 2 15 -35 27 -83 13 -49 27 -98 32 -111 5 -13 7 -28 4 -33 -4 -5 -1
-9 5 -9 7 0 10 -6 7 -14 -3 -8 -2 -16 2 -18 4 -2 19 -41 34 -88 55 -177 254
-528 406 -717 27 -34 49 -63 48 -65 -1 -1 0 -2 2 -1 5 3 46 -49 46 -59 0 -4 7
-13 15 -20 12 -11 12 -10 0 7 -14 20 -14 20 7 1 13 -10 20 -23 16 -29 -3 -5
-2 -7 4 -4 5 3 27 -12 48 -33 22 -22 35 -40 30 -40 -4 0 0 -9 10 -20 10 -11
21 -17 25 -15 4 3 31 -18 59 -45 29 -28 49 -44 45 -38 -5 7 15 -7 44 -31 29
-24 52 -46 52 -49 0 -3 -10 3 -22 14 l-23 19 18 -22 c11 -12 24 -20 31 -17 7
3 23 -8 36 -23 l25 -28 -24 20 c-14 11 -21 15 -17 8 10 -18 71 -60 62 -42 -4
7 2 3 14 -11 12 -14 19 -18 15 -10 -4 8 3 4 15 -10 12 -14 19 -18 15 -10 -4 8
3 3 16 -11 28 -31 107 -80 94 -58 -4 8 3 2 18 -13 24 -25 39 -33 52 -25 2 1
10 -6 17 -16 7 -10 23 -19 35 -20 12 0 20 -4 18 -8 -7 -10 45 -30 57 -23 7 5
8 2 3 -6 -6 -10 -4 -12 9 -7 9 4 15 3 12 -1 -6 -10 153 -79 283 -124 47 -16
92 -34 99 -40 6 -6 12 -26 12 -45 0 -34 -1 -34 -32 -28 -18 3 -61 15 -95 26
-35 11 -68 17 -74 13 -8 -5 -9 -3 -4 6 6 10 4 12 -8 7 -9 -3 -17 -2 -19 3 -2
5 -12 11 -23 13 -11 2 -41 14 -68 26 -26 12 -52 19 -59 15 -6 -4 -8 -3 -5 3 8
12 -81 56 -95 47 -6 -4 -8 -3 -5 2 3 6 -21 22 -54 36 -32 15 -56 22 -53 16 4
-6 -2 -5 -15 1 -11 7 -21 14 -21 17 0 3 4 2 10 -1 6 -3 10 -4 10 -1 0 3 -10
10 -21 17 -17 9 -20 8 -14 -3 4 -7 -3 -1 -16 14 -34 37 -137 100 -152 92 -6
-4 -9 -4 -5 1 10 11 -52 56 -66 48 -6 -3 -8 -3 -4 1 3 4 -37 43 -90 86 -53 43
-169 151 -257 241 -88 90 -163 163 -167 161 -9 -2 -124 141 -143 179 -9 16
-20 29 -25 29 -6 0 -9 3 -8 8 4 13 -78 152 -86 145 -4 -4 -4 1 0 11 6 16 4 18
-12 14 -16 -4 -20 0 -20 16 1 12 -4 20 -12 18 -9 -2 -12 4 -8 15 7 25 -49 132
-57 109 -5 -11 -3 -15 5 -10 8 5 9 2 5 -10 -5 -11 -3 -15 5 -10 8 5 9 2 5 -9
-3 -9 3 -37 14 -62 11 -25 17 -50 13 -56 -9 -15 48 -117 148 -262 48 -71 88
-131 88 -133 0 -3 -6 -2 -12 2 -7 4 -5 -2 6 -14 10 -12 21 -20 25 -19 4 1 34
-29 68 -68 66 -76 250 -258 298 -294 17 -12 24 -19 16 -15 -9 5 -12 3 -7 -5 4
-6 11 -9 16 -6 4 3 30 -13 57 -35 26 -22 73 -59 103 -82 30 -22 63 -49 73 -60
10 -10 24 -18 31 -18 7 0 61 -31 120 -70 59 -38 121 -75 137 -82 16 -7 29 -17
29 -21 0 -5 5 -5 10 -2 6 3 10 1 10 -6 0 -7 3 -9 6 -6 4 3 16 1 28 -5 11 -7
23 -13 26 -13 15 -1 70 -28 70 -35 0 -3 6 -7 13 -7 20 0 207 -75 207 -84 0 -4
9 -5 20 -2 11 3 20 0 20 -6 0 -5 7 -8 15 -5 8 4 15 1 15 -5 0 -6 10 -11 23
-11 12 0 65 -13 117 -29 54 -17 154 -36 230 -46 127 -15 137 -18 162 -45 32
-35 48 -98 27 -111 -10 -6 -8 -9 9 -9 17 0 22 -6 22 -25 0 -14 7 -41 14 -60
11 -26 12 -35 3 -36 -7 0 -2 -4 11 -9 12 -5 22 -17 22 -27 0 -10 12 -63 26
-118 25 -93 30 -130 22 -166 -2 -9 4 -13 15 -11 14 2 17 -5 17 -47 0 -31 6
-55 15 -65 10 -10 15 -35 15 -75 0 -34 4 -61 9 -61 5 0 11 -12 14 -27 5 -23
11 -28 36 -28 27 0 31 3 32 30 1 17 2 35 3 40 1 6 5 33 10 60 4 28 13 68 21
90 19 55 37 141 41 194 2 24 10 51 19 61 9 10 19 37 22 59 3 23 10 41 14 41 5
0 9 11 9 25 0 14 4 25 8 25 4 0 8 8 9 18 1 9 8 38 15 65 10 36 17 47 33 48 11
0 14 3 8 6 -7 2 -13 12 -13 20 0 25 51 112 69 117 9 3 69 12 133 20 210 27
702 185 681 219 -4 6 0 8 11 4 11 -5 15 -3 10 5 -5 8 -2 9 10 5 9 -4 15 -3 12
2 -3 4 6 13 20 20 35 16 44 13 14 -4 -14 -8 -20 -14 -15 -14 14 0 62 28 50 29
-5 0 -2 5 8 11 9 5 22 7 29 3 7 -5 8 -3 3 6 -6 10 -4 12 9 7 10 -4 15 -3 11 3
-7 12 32 33 47 24 7 -4 8 -3 4 4 -7 11 6 17 27 13 5 -1 6 3 2 9 -3 5 -1 10 4
10 6 0 13 0 16 0 3 0 14 9 25 20 12 12 25 18 30 15 6 -4 10 -2 10 4 0 13 90
62 101 55 5 -3 8 0 7 8 -2 7 6 13 17 13 11 0 20 5 20 11 0 6 31 36 69 65 87
68 138 113 84 74 -20 -15 -41 -24 -46 -21 -6 3 -38 -17 -72 -44 -118 -94 -529
-323 -620 -344 l-25 -6 25 11 c244 111 535 277 632 360 55 48 76 61 62 37 -9
-14 82 50 98 69 6 7 15 13 21 13 5 0 2 -10 -9 -22 -10 -13 7 1 39 31 31 30 54
57 52 60 -3 3 15 26 41 52 25 26 42 49 37 52 -6 4 -29 -14 -53 -38 -24 -25
-40 -45 -36 -45 12 0 -12 -26 -54 -60 -24 -19 -37 -24 -37 -15 0 8 5 11 10 8
6 -4 7 -1 2 7 -5 8 -4 11 2 7 6 -4 21 6 34 21 18 20 19 22 3 9 -11 -9 -23 -15
-26 -12 -7 8 -88 -65 -85 -77 1 -6 -4 -13 -12 -16 -9 -3 -11 0 -6 9 5 8 4 11
-1 6 -5 -5 -9 -14 -9 -19 0 -6 -6 -13 -14 -16 -9 -3 -11 0 -6 8 4 7 -27 -15
-70 -49 -84 -67 -148 -104 -160 -93 -5 4 -4 1 0 -7 6 -11 4 -13 -8 -8 -10 4
-16 2 -14 -6 1 -7 -6 -11 -15 -11 -10 1 -16 -3 -15 -10 1 -6 -6 -11 -15 -11
-9 0 -20 -4 -25 -9 -4 -5 -3 -6 5 -2 6 4 12 5 12 2 0 -3 -10 -10 -21 -17 -14
-7 -19 -7 -15 0 9 13 -122 -47 -194 -89 -105 -62 -230 -99 -230 -67 0 16 37
57 51 57 12 0 144 64 162 78 6 5 53 31 102 57 101 53 117 64 110 75 -3 5 0 12
6 16 8 5 9 3 4 -6 -5 -8 -3 -11 6 -8 8 3 14 10 14 16 0 5 4 14 9 19 5 5 6 3 2
-4 -11 -19 9 -16 25 4 12 14 12 16 0 8 -9 -5 -12 -4 -7 3 4 6 13 9 20 6 7 -3
19 3 27 13 13 17 13 17 -6 3 -19 -14 -19 -14 -6 3 8 10 20 16 27 13 7 -3 16 0
20 6 5 7 2 8 -7 4 -8 -4 -5 -1 5 8 10 8 22 13 27 11 4 -3 11 0 15 6 5 8 3 9
-7 4 -11 -6 -11 -5 -3 4 6 7 20 14 30 15 11 2 19 8 19 13 0 6 35 39 78 73 42
34 77 64 77 67 0 2 -17 -8 -37 -24 -55 -43 -64 -47 -56 -27 5 13 3 15 -8 10
-8 -4 15 20 51 53 36 34 70 59 76 57 6 -2 49 35 95 82 l84 87 -90 -85 -90 -85
88 91 c86 88 128 116 106 70 -11 -23 31 21 93 99 22 28 46 50 52 50 6 1 10 7
8 14 -1 6 13 31 31 54 18 23 48 66 66 95 18 28 35 52 38 52 2 0 1 -5 -3 -12
-4 -7 -3 -8 5 -4 6 4 9 11 6 16 -5 8 51 108 66 120 12 9 37 78 31 84 -3 3 0 6
7 6 7 0 9 5 6 10 -3 6 -1 10 5 10 6 0 9 4 6 9 -9 14 5 42 17 34 5 -3 7 -1 3 5
-3 6 -2 13 4 17 6 4 8 11 5 16 -4 5 -1 9 5 9 6 0 8 4 5 10 -3 6 -2 10 3 10 19
0 95 275 95 347 0 18 5 29 10 26 5 -3 6 8 2 28 -5 27 -4 31 5 19 9 -12 11 -9
8 17 -3 19 0 30 5 26 7 -4 8 12 4 43 -4 35 -3 43 4 29 7 -15 8 -7 4 28 -2 27
-1 46 4 43 5 -3 12 5 15 19 4 17 13 25 29 25 12 1 39 7 60 14 20 8 39 11 42 7
2 -4 -2 -43 -10 -86 -7 -43 -11 -84 -8 -91 3 -8 0 -14 -7 -14 -8 0 -10 -9 -6
-25 4 -16 2 -25 -5 -25 -6 0 -9 -7 -5 -15 9 -25 -28 -163 -74 -270 -24 -55
-53 -129 -65 -165 -33 -96 -69 -171 -126 -268 -28 -48 -72 -122 -97 -164 -25
-42 -50 -74 -55 -71 -6 3 -7 2 -4 -4 6 -10 -105 -164 -147 -202 -14 -14 -26
-29 -26 -35 0 -5 23 15 51 45 46 50 58 52 20 3 -9 -11 0 -3 20 18 20 20 72 91
115 156 43 66 85 128 92 138 7 11 3 -1 -9 -26 -42 -88 -224 -334 -240 -324 -5
3 -8 0 -7 -7 2 -7 -2 -13 -9 -14 -7 0 -17 -5 -24 -12 -17 -17 14 -11 35 6 9 7
16 9 16 4 0 -12 -45 -55 -51 -48 -3 2 -21 -12 -40 -33 -19 -20 -22 -27 -8 -14
14 12 28 20 31 17 6 -7 122 119 169 184 17 22 36 38 41 34 7 -3 8 -1 4 6 -9
13 32 74 44 66 5 -3 12 0 16 6 4 8 3 9 -4 5 -19 -11 -14 0 23 59 20 31 40 53
45 50 6 -3 7 0 4 8 -3 8 0 18 7 23 8 5 10 3 4 -6 -5 -9 -4 -11 4 -6 6 4 9 11
6 16 -8 13 120 262 130 253 4 -5 5 -2 1 5 -9 15 32 124 44 117 4 -3 11 2 14
11 9 24 7 31 -4 14 -5 -8 -10 -10 -10 -5 0 13 20 43 20 30 0 -13 20 17 20 30
0 6 -5 3 -11 -5 -9 -12 -10 -12 -5 3 3 10 6 21 6 23 0 3 5 2 11 -2 8 -4 9 1 4
16 -5 17 -4 21 6 15 9 -6 11 -3 6 8 -3 10 -2 17 3 17 5 0 6 7 3 17 -5 11 -3
14 6 8 10 -5 11 -2 7 12 -8 25 3 55 17 46 6 -4 8 3 3 21 -4 16 -3 25 3 22 12
-8 22 34 14 63 -5 18 -3 22 6 16 10 -6 12 0 6 26 -5 27 -4 31 5 19 9 -12 10
-6 5 25 -4 29 -3 36 5 25 8 -11 9 -3 5 30 -4 35 -3 40 5 20 6 -18 8 -4 5 50
-3 55 -2 67 5 45 7 -22 8 -8 5 50 -3 53 -2 73 4 60 8 -16 10 -11 10 22 1 38 5
45 39 66 20 13 50 27 67 31 16 4 32 11 35 15 3 5 48 26 100 48 101 43 200 71
342 99 104 20 125 31 106 57 -12 16 -74 35 -460 137 -20 6 -51 25 -70 43 -18
17 -60 41 -93 53 -57 20 -61 22 -72 65 -9 36 -12 39 -12 16 -1 -31 -17 -28
-31 7 -8 19 -9 18 -9 -8 -1 -27 -3 -28 -33 -23 -93 16 -119 41 -138 132 -5 28
-8 33 -9 15 -2 -40 -17 -5 -31 75 -6 39 -23 104 -37 145 -28 83 -48 124 -38
76 18 -85 12 -80 -25 18 -22 60 -41 119 -41 130 -1 17 -2 18 -6 4 -2 -10 3
-43 12 -74 23 -80 12 -78 -14 3 -29 91 -41 108 -35 52 5 -41 4 -42 -8 -19 -14
27 -38 38 -38 17 -1 -6 -14 14 -31 46 -16 32 -34 55 -39 52 -5 -3 -7 0 -4 8 3
8 0 18 -7 23 -8 5 -10 3 -4 -6 5 -8 4 -11 -2 -7 -6 4 -14 19 -17 33 -9 35 -93
214 -101 214 -3 0 3 -17 14 -37 26 -53 36 -87 22 -79 -8 5 -8 0 0 -18 7 -14
16 -23 22 -19 6 3 7 1 4 -4 -4 -6 20 -73 52 -149 33 -77 75 -191 94 -254 34
-112 62 -238 55 -246 -7 -6 -82 17 -95 29 -6 7 -23 55 -37 107 -14 52 -30 96
-36 98 -5 2 -8 8 -4 13 14 23 -100 307 -149 373 -13 17 -27 40 -31 51 -29 80
-194 318 -304 439 -16 18 -32 41 -34 51 -1 10 -10 21 -18 25 -34 16 -52 29
-151 113 -136 116 -334 248 -467 312 -97 47 -281 123 -314 129 -7 2 -26 8 -43
15 -16 7 -69 22 -117 34 l-87 22 -11 40 c-6 22 -13 46 -16 52 -4 10 4 9 33 -1
21 -7 58 -16 83 -20 l45 -7 -45 25 c-25 14 -54 26 -65 27 -17 1 -16 2 5 9 25
7 25 8 -10 21 -34 13 -35 13 -10 20 l25 7 -25 8 -25 8 30 6 c30 6 30 6 -14 20
-41 13 -43 15 -20 21 23 6 23 7 -9 19 -24 9 -30 15 -21 21 9 5 6 11 -14 20
-14 6 -25 15 -22 19 2 3 -1 25 -7 48 -9 35 -8 46 6 67 12 19 13 25 4 27 -7 0
7 4 32 7 l45 7 -55 11 c-46 9 -49 11 -20 11 19 1 66 -5 103 -12 58 -11 66 -11
55 0 -8 8 -52 19 -98 24 -104 12 -130 18 -128 28 1 4 -11 32 -25 62 -15 31
-24 63 -21 76 4 16 0 23 -15 27 -22 5 -30 47 -10 47 8 0 8 4 0 14 -7 8 -9 25
-6 39 6 21 3 26 -17 29 -20 3 -23 8 -21 42 2 22 8 43 15 48 9 5 6 8 -8 8 -27
0 -37 13 -54 70 -7 25 -17 50 -20 55 -7 11 -65 277 -78 359 -8 54 -18 63 -46
43z m64 -382 c58 -223 134 -481 207 -708 27 -85 26 -119 -1 -40 -65 185 -257
862 -255 897 1 20 20 -37 49 -149z m-135 -173 c-42 -147 -92 -314 -110 -372
-19 -58 -39 -125 -45 -149 -6 -23 -13 -41 -16 -38 -2 2 12 60 32 128 20 68 60
207 90 309 30 102 69 238 87 302 17 65 33 111 35 103 2 -9 -31 -136 -73 -283z
m100 176 c27 -124 224 -781 270 -897 31 -79 55 -144 53 -146 -2 -2 -46 3 -98
11 -52 7 -128 14 -167 14 -58 0 -73 3 -73 15 0 8 -4 15 -10 15 -5 0 -10 -6
-10 -13 0 -11 -27 -16 -109 -20 -60 -4 -130 -11 -156 -17 -26 -6 -50 -8 -53
-5 -9 8 24 93 68 176 41 76 52 86 25 22 -20 -47 -19 -60 3 -41 23 20 99 48
170 62 l57 12 3 289 c3 303 -3 449 -19 424 -15 -23 -11 7 6 48 8 19 15 46 15
59 0 35 17 29 25 -8z m-61 -152 c-3 -15 -8 -25 -11 -23 -2 3 -1 17 3 31 3 15
8 25 11 23 2 -3 1 -17 -3 -31z m-25 -90 c-6 -26 -13 -45 -16 -43 -2 3 1 26 8
51 6 26 13 45 16 43 2 -3 -1 -26 -8 -51z m-309 -347 c-25 -4 -58 -7 -75 -7
-25 1 -24 2 10 8 22 4 56 7 75 7 31 0 30 0 -10 -8z m-117 -16 c-7 -2 -21 -2
-30 0 -10 3 -4 5 12 5 17 0 24 -2 18 -5z m211 -227 c-15 -42 -28 -75 -30 -73
-2 2 8 38 22 81 14 42 28 75 31 73 2 -3 -8 -39 -23 -81z m585 -21 c0 -5 -4 -3
-9 5 -5 8 -9 22 -9 30 0 16 17 -16 18 -35z m-296 -200 c-7 -21 -13 -19 -13 6
0 11 4 18 10 14 5 -3 7 -12 3 -20z m815 -152 c43 -10 212 -129 212 -148 0 -6
-5 -16 -10 -21 -6 -6 -16 -30 -23 -54 -18 -64 -36 -70 -88 -32 -24 18 -39 32
-35 32 17 0 -62 57 -118 85 -48 24 -60 34 -58 50 2 11 6 35 9 53 4 22 11 32
24 32 10 0 21 5 24 11 4 6 14 8 22 5 8 -4 27 -9 41 -13z m-586 -69 c464 -60
872 -265 1203 -605 190 -194 291 -332 388 -525 133 -266 200 -505 223 -796 6
-83 6 -88 -13 -88 -18 0 -20 9 -26 108 -8 134 -54 354 -102 492 -180 515 -590
969 -1088 1205 -200 95 -476 168 -689 181 -96 6 -108 9 -108 25 0 24 43 25
212 3z m906 -101 c-1 -5 2 -18 6 -31 5 -16 3 -29 -8 -41 -9 -10 -16 -27 -16
-39 0 -18 -6 -22 -29 -22 -17 0 -33 -4 -36 -10 -8 -13 -42 -13 -50 0 -10 17
22 58 47 62 17 2 24 11 26 33 2 17 11 36 20 43 17 13 43 16 40 5z m-1290 -188
l-1 -60 -7 50 c-5 28 -8 73 -8 100 l0 50 9 -40 c4 -22 8 -67 7 -100z m-178 25
c7 -45 10 -83 7 -86 -6 -6 -14 29 -25 113 -12 91 3 67 18 -27z m-185 -51 c27
-88 29 -98 16 -83 -8 8 -51 141 -51 158 0 22 12 -5 35 -75z m-179 26 c10 -25
-7 -40 -23 -20 -7 11 -13 22 -13 27 0 14 30 9 36 -7z m-286 -35 c0 -5 -7 -10
-16 -10 -8 0 -12 5 -9 10 3 6 10 10 16 10 5 0 9 -4 9 -10z m4 -296 c3 -8 2
-12 -4 -9 -6 3 -10 10 -10 16 0 14 7 11 14 -7z m2586 -422 c0 -7 -4 -10 -10
-7 -5 3 -10 -1 -10 -9 0 -21 -13 -20 -34 3 -16 18 -16 20 6 40 21 20 23 21 35
5 7 -10 13 -24 13 -32z m35 -121 c-21 -19 -165 -92 -165 -84 0 5 37 28 83 51
86 43 97 48 82 33z m60 -141 c-9 -14 -125 -64 -125 -54 0 4 113 60 128 63 2 1
0 -4 -3 -9z m-3414 -25 c45 -34 43 -49 -6 -53 -32 -2 -43 2 -53 18 -14 24 -7
60 12 60 7 0 28 -11 47 -25z m3068 -261 c-57 -59 -130 -133 -163 -166 -45 -46
-56 -62 -45 -69 10 -6 8 -9 -9 -9 -13 0 -22 4 -20 10 4 12 327 340 335 340 3
0 -41 -48 -98 -106z m-3051 61 c29 -9 52 -19 49 -21 -5 -5 -127 36 -127 43 0
3 6 3 13 1 6 -3 36 -13 65 -23z m555 -306 c-25 -9 -50 1 -31 12 9 6 -21 42
-110 132 -67 68 -122 128 -122 133 0 5 63 -54 140 -131 111 -111 136 -141 123
-146z m-1150 -9 c-12 -140 -10 -311 6 -460 6 -62 5 -70 -8 -64 -9 3 -40 15
-70 25 -60 21 -84 37 -75 51 3 5 -2 24 -10 43 -9 19 -22 74 -29 122 l-13 88
-255 3 c-139 1 -320 -2 -400 -7 -134 -8 -237 -2 -199 12 8 3 119 33 245 67
384 103 550 156 725 229 52 22 95 39 96 38 0 -1 -5 -67 -13 -147z m4082 140
c-11 -5 -31 -8 -45 -8 l-25 0 25 8 c14 4 34 8 45 8 l20 1 -20 -9z m686 -78
c87 -32 438 -137 713 -213 l159 -44 -54 -12 c-43 -10 -59 -10 -78 0 -17 9
-119 12 -385 12 l-361 0 -3 -40 c-3 -54 -32 -174 -43 -181 -15 -9 -10 -22 9
-27 11 -2 -8 -15 -53 -36 -38 -18 -83 -39 -99 -47 -25 -13 -28 -13 -22 1 3 9
11 87 18 175 9 124 9 192 0 314 -7 86 -15 163 -18 171 -5 11 12 7 63 -14 38
-15 107 -42 154 -59z m-768 61 c-7 -2 -19 -2 -25 0 -7 3 -2 5 12 5 14 0 19 -2
13 -5z m-3454 -159 c9 -8 -75 -2 -94 6 -12 5 1 6 35 3 30 -3 57 -7 59 -9z
m488 0 c-3 -3 -12 -4 -19 -1 -8 3 -5 6 6 6 11 1 17 -2 13 -5z m3068 -5 c-22
-4 -58 -7 -80 -7 l-40 1 45 7 c25 4 61 7 80 7 l35 1 -40 -9z m-3950 -149 c-3
-5 -21 -10 -40 -10 -19 0 -37 5 -40 10 -4 6 12 10 40 10 28 0 44 -4 40 -10z
m4145 -6 c0 -2 -11 -4 -25 -4 -14 0 -25 4 -25 9 0 4 11 6 25 3 14 -2 25 -6 25
-8z m120 6 c0 -5 -16 -10 -35 -10 -19 0 -35 5 -35 10 0 6 16 10 35 10 19 0 35
-4 35 -10z m-4107 -7 c-7 -2 -21 -2 -30 0 -10 3 -4 5 12 5 17 0 24 -2 18 -5z
m-39 -117 c37 -529 300 -1041 721 -1404 341 -294 734 -458 1171 -488 78 -6 94
-10 92 -22 -9 -49 -457 29 -688 118 -475 185 -911 586 -1126 1037 -123 258
-179 457 -204 723 -11 113 -9 130 14 130 9 0 15 -27 20 -94z m4066 61 c0 -65
-31 -284 -56 -392 -31 -133 -105 -332 -173 -461 -32 -60 -44 -94 -35 -90 9 3
19 6 24 6 4 0 6 8 3 19 -2 10 1 25 9 32 7 8 18 23 23 33 6 10 14 18 18 17 4 0
15 -1 26 -1 14 0 21 -10 25 -35 4 -19 8 -35 10 -35 14 0 67 35 91 60 17 18 38
36 49 42 17 9 18 7 13 -18 -9 -41 40 67 68 151 15 44 20 72 14 76 -14 8 -7 61
8 66 6 2 13 -4 15 -14 2 -10 14 20 27 65 25 87 29 91 97 108 25 6 25 5 18 -32
-55 -312 -236 -708 -450 -985 -136 -177 -361 -383 -584 -533 -233 -157 -507
-273 -792 -335 l-87 -19 17 46 17 46 108 33 c101 32 107 35 108 61 2 23 2 24
6 5 2 -13 8 -23 12 -23 22 0 100 33 95 41 -3 5 1 6 9 4 7 -3 33 4 58 15 24 11
36 18 26 15 -11 -3 -30 -8 -44 -11 l-26 -7 22 22 c12 12 19 26 15 32 -8 13 40
60 84 83 29 15 35 15 62 1 36 -19 37 -30 8 -56 l-23 -19 30 12 c17 7 33 17 37
23 4 5 8 6 8 2 0 -5 17 1 38 14 49 30 65 45 25 25 -57 -29 -65 -17 -38 59 12
34 12 41 -1 56 -13 14 -15 81 -3 93 2 2 31 24 64 49 33 25 78 62 100 82 23 21
7 12 -40 -23 -91 -67 -279 -177 -388 -226 -182 -83 -461 -152 -659 -163 -102
-5 -118 -4 -118 9 0 12 20 17 98 22 452 33 841 201 1204 520 388 340 651 858
683 1347 8 111 10 119 30 119 10 0 15 -10 15 -33z m-196 7 c9 -3 16 -16 16
-29 0 -20 -6 -23 -61 -29 -88 -9 -129 -8 -129 4 0 6 8 10 18 10 10 0 24 6 30
13 7 6 34 17 60 23 26 7 48 12 49 13 1 0 8 -2 17 -5z m-36 -111 c-15 -2 -42
-2 -60 0 -18 2 -6 4 27 4 33 0 48 -2 33 -4z m-690 -109 c12 -8 22 -21 22 -29
0 -21 -22 -30 -34 -13 -13 17 -36 13 -36 -7 0 -8 -4 -16 -9 -20 -5 -3 -5 11 1
32 16 60 20 63 56 37z m1593 -74 c-5 -25 -9 -35 -10 -24 -1 28 11 92 16 79 1
-6 -1 -30 -6 -55z m-5454 18 c-3 -8 -6 -5 -6 6 -1 11 2 17 5 13 3 -3 4 -12 1
-19z m10 -60 c-3 -7 -5 -2 -5 12 0 14 2 19 5 13 2 -7 2 -19 0 -25z m170 -20
c-3 -8 -6 -5 -6 6 -1 11 2 17 5 13 3 -3 4 -12 1 -19z m110 -10 c-3 -8 -6 -5
-6 6 -1 11 2 17 5 13 3 -3 4 -12 1 -19z m40 -10 c-3 -8 -6 -5 -6 6 -1 11 2 17
5 13 3 -3 4 -12 1 -19z m5110 -70 c-2 -18 -4 -4 -4 32 0 36 2 50 4 33 2 -18 2
-48 0 -65z m-5420 35 c-3 -10 -5 -2 -5 17 0 19 2 27 5 18 2 -10 2 -26 0 -35z
m445 21 c22 -5 29 -14 39 -57 37 -157 133 -400 220 -561 66 -120 182 -301 202
-313 6 -4 0 9 -14 28 -14 18 -34 50 -44 69 l-17 35 30 -29 c17 -15 35 -26 40
-22 5 3 33 -10 63 -29 56 -37 74 -42 84 -25 11 18 36 10 81 -26 46 -38 52 -52
32 -72 -19 -19 -19 -45 0 -36 9 3 28 9 40 12 21 4 23 1 20 -24 -1 -16 -10 -34
-18 -41 -8 -7 -11 -13 -6 -13 4 0 1 -12 -9 -27 -16 -27 -15 -26 12 3 15 17 33
39 39 50 11 18 14 18 40 4 31 -17 45 -63 25 -83 -19 -19 -12 -34 36 -79 63
-58 101 -98 124 -130 19 -26 19 -26 -1 -21 -27 7 -26 -18 1 -35 12 -7 19 -16
16 -19 -3 -3 -37 16 -76 41 -39 25 -71 44 -71 41 0 -7 122 -91 219 -150 l93
-58 25 29 c25 29 25 29 9 2 -15 -26 -15 -28 9 -47 50 -39 379 -167 541 -210
38 -10 43 -15 52 -53 6 -23 10 -43 9 -45 -2 -1 -27 4 -57 11 -30 7 -98 23
-150 36 -296 69 -687 282 -943 513 -132 121 -313 324 -396 446 -138 205 -272
503 -336 750 -19 74 -35 139 -35 144 0 5 10 6 23 3 12 -4 34 -9 49 -12z m-205
-26 c-3 -8 -6 -5 -6 6 -1 11 2 17 5 13 3 -3 4 -12 1 -19z m10 -70 c-3 -7 -5
-2 -5 12 0 14 2 19 5 13 2 -7 2 -19 0 -25z m718 12 c-27 -12 -43 -12 -25 0 8
5 22 9 30 9 10 0 8 -3 -5 -9z m-678 -22 c-3 -8 -6 -5 -6 6 -1 11 2 17 5 13 3
-3 4 -12 1 -19z m5120 -20 c-3 -8 -6 -5 -6 6 -1 11 2 17 5 13 3 -3 4 -12 1
-19z m-5099 -68 c0 -9 -3 -7 -8 5 -5 11 -8 29 -8 40 0 16 2 15 8 -5 4 -14 8
-32 8 -40z m69 18 c-3 -8 -6 -5 -6 6 -1 11 2 17 5 13 3 -3 4 -12 1 -19z m703
-82 c-14 -7 -36 -16 -50 -20 -14 -3 -7 3 15 13 45 22 73 27 35 7z m2607 -191
c14 -27 33 -61 42 -75 9 -14 25 -43 35 -64 14 -33 -8 -14 -122 104 l-139 144
29 48 30 49 50 -78 c27 -43 61 -100 75 -128z m704 170 c19 -8 27 -14 19 -14
-14 0 -72 28 -59 29 4 0 22 -7 40 -15z m976 -7 c-3 -8 -6 -5 -6 6 -1 11 2 17
5 13 3 -3 4 -12 1 -19z m-4990 -30 c-3 -8 -6 -5 -6 6 -1 11 2 17 5 13 3 -3 4
-12 1 -19z m4973 -25 c-11 -17 -11 -17 -6 0 3 10 6 24 7 30 0 9 2 9 5 0 3 -7
0 -20 -6 -30z m-289 0 c-12 -20 -14 -14 -5 12 4 9 9 14 11 11 3 -2 0 -13 -6
-23z m-3851 -23 c-8 -5 -19 -10 -25 -10 -5 0 -3 5 5 10 8 5 20 10 25 10 6 0 3
-5 -5 -10z m700 7 c0 -2 -12 -14 -27 -28 l-28 -24 24 28 c23 25 31 32 31 24z
m-754 -32 c-11 -8 -25 -15 -30 -15 -6 1 0 7 14 15 32 19 40 18 16 0z m4144
-110 c-16 -47 -23 -40 -8 8 6 20 13 35 16 33 2 -3 -1 -21 -8 -41z m-369 -12
c-12 -20 -14 -14 -5 12 4 9 9 14 11 11 3 -2 0 -13 -6 -23z m45 -87 c-32 -58
-59 -106 -62 -106 -3 0 21 49 53 109 32 60 60 108 62 106 2 -2 -22 -51 -53
-109z m-1405 88 c12 -15 11 -16 -11 -9 -35 10 -49 25 -23 25 11 0 27 -7 34
-16z m-3193 -19 c-3 -3 -9 2 -12 12 -6 14 -5 15 5 6 7 -7 10 -15 7 -18z m86
-21 c3 -8 2 -12 -4 -9 -6 3 -10 10 -10 16 0 14 7 11 14 -7z m4559 -29 c-9 -19
-18 -33 -21 -31 -4 5 26 66 33 66 3 0 -3 -16 -12 -35z m222 -61 c-35 -84 -112
-234 -121 -234 -2 0 22 53 54 118 33 64 67 138 77 165 10 26 20 46 22 43 2 -2
-12 -43 -32 -92z m-945 52 c0 -21 -20 -30 -33 -17 -9 9 -8 14 3 21 21 14 30
12 30 -4z m633 -1 c-3 -9 -8 -14 -10 -11 -3 3 -2 9 2 15 9 16 15 13 8 -4z
m-4479 -11 c3 -8 2 -12 -4 -9 -6 3 -10 10 -10 16 0 14 7 11 14 -7z m86 -92
c51 -100 181 -301 272 -422 44 -59 45 -61 8 -20 -22 25 -66 83 -97 130 -31 47
-71 104 -89 127 -31 41 -159 283 -150 283 3 0 28 -44 56 -98z m3720 40 c0 -17
-46 -70 -53 -61 -15 18 -37 55 -37 60 0 9 26 16 63 18 20 1 27 -4 27 -17z
m625 -32 c-14 -27 -28 -50 -30 -50 -3 0 6 23 20 50 14 28 28 50 30 50 3 0 -6
-22 -20 -50z m105 32 c0 -5 -7 -17 -15 -28 -14 -18 -14 -17 -4 9 12 27 19 34
19 19z m20 -51 c-28 -56 -35 -52 -8 4 12 24 23 43 26 41 2 -2 -6 -22 -18 -45z
m-167 14 c-3 -9 -8 -14 -10 -11 -3 3 -2 9 2 15 9 16 15 13 8 -4z m-2363 -8 c0
-1 -53 -54 -117 -117 l-118 -115 115 118 c107 109 120 122 120 114z m2335 -47
c-9 -16 -18 -30 -21 -30 -2 0 2 14 11 30 9 17 18 30 21 30 2 0 -2 -13 -11 -30z
m64 -32 c-24 -48 -127 -208 -133 -208 -2 0 30 56 71 125 75 125 102 161 62 83z
m-65 -35 c-44 -76 -74 -123 -79 -123 -2 0 19 38 47 85 28 47 53 85 55 85 3 0
-8 -21 -23 -47z m86 -10 c-33 -59 -188 -273 -197 -273 -3 0 6 15 20 33 65 86
142 197 169 245 17 28 32 52 35 52 3 0 -10 -26 -27 -57z m-4631 -8 c0 -5 -6 1
-14 15 -8 14 -14 30 -14 35 0 6 6 -1 14 -15 8 -14 14 -29 14 -35z m306 -77
c16 -24 22 -38 14 -31 -15 12 -53 73 -46 73 2 0 17 -19 32 -42z m4530 -8 c-9
-16 -18 -30 -21 -30 -2 0 2 14 11 30 9 17 18 30 21 30 2 0 -2 -13 -11 -30z
m-241 -37 c-20 -32 -45 -67 -55 -78 -11 -11 3 15 31 58 60 89 78 104 24 20z
m-4489 -74 c9 -17 21 -27 27 -23 7 4 8 3 4 -4 -4 -6 -2 -21 4 -32 18 -33 3
-23 -18 13 -11 19 -28 47 -38 62 -11 16 -13 26 -6 21 6 -4 19 -21 27 -37z
m4297 -6 c-11 -16 -37 -46 -57 -68 -20 -22 -13 -10 16 28 52 66 79 93 41 40z
m-3997 -23 c10 -11 16 -20 13 -20 -3 0 -13 9 -23 20 -10 11 -16 20 -13 20 3 0
13 -9 23 -20z m1210 -50 c-14 -27 -28 -50 -30 -50 -3 0 6 23 20 50 14 28 28
50 30 50 3 0 -6 -22 -20 -50z m2795 20 c-12 -16 -24 -30 -26 -30 -3 0 4 14 16
30 12 17 24 30 26 30 3 0 -4 -13 -16 -30z m110 26 c0 -2 -8 -10 -17 -17 -16
-13 -17 -12 -4 4 13 16 21 21 21 13z m-190 -9 c0 -2 -17 -19 -37 -38 l-38 -34
34 38 c33 34 41 42 41 34z m-3755 -27 c10 -11 16 -20 13 -20 -3 0 -13 9 -23
20 -10 11 -16 20 -13 20 3 0 13 -9 23 -20z m-130 -10 c10 -11 16 -20 13 -20
-3 0 -13 9 -23 20 -10 11 -16 20 -13 20 3 0 13 -9 23 -20z m2829 -6 c3 -8 2
-12 -4 -9 -6 3 -10 10 -10 16 0 14 7 11 14 -7z m1216 12 c0 -2 -8 -10 -17 -17
-16 -13 -17 -12 -4 4 13 16 21 21 21 13z m-4309 -48 c17 -24 18 -29 6 -19 -18
14 -42 51 -33 51 3 0 15 -15 27 -32z m4190 5 c-5 -10 -17 -27 -26 -38 -16 -19
-16 -19 -4 5 13 27 29 50 36 50 2 0 -1 -8 -6 -17z m-3936 -13 c10 -11 16 -20
13 -20 -3 0 -13 9 -23 20 -10 11 -16 20 -13 20 3 0 13 -9 23 -20z m2875 -24
c0 -5 -7 -1 -15 10 -8 10 -14 24 -14 29 0 6 6 1 14 -9 8 -11 15 -24 15 -30z
m1096 16 c-17 -16 -18 -16 -5 5 7 12 15 20 18 17 3 -2 -3 -12 -13 -22z m-3741
-32 c27 -27 47 -50 44 -50 -3 0 -27 23 -54 50 -27 28 -47 50 -44 50 3 0 27
-22 54 -50z m3595 47 c0 -2 -10 -12 -22 -23 l-23 -19 19 23 c18 21 26 27 26
19z m-1094 -104 c-5 -5 -36 62 -36 76 1 3 10 -11 21 -32 11 -22 18 -41 15 -44z
m1105 50 c-10 -16 -45 -53 -77 -83 -51 -48 -48 -45 17 27 79 87 92 100 60 56z
m-4050 0 c13 -16 12 -17 -3 -4 -17 13 -22 21 -14 21 2 0 10 -8 17 -17z m489
-98 c63 -63 112 -115 110 -115 -3 0 -57 52 -120 115 -63 63 -112 115 -110 115
3 0 57 -52 120 -115z m3680 112 c0 -2 -10 -12 -22 -23 l-23 -19 19 23 c18 21
26 27 26 19z m-3860 -72 c35 -36 62 -65 59 -65 -2 0 -34 29 -69 65 -35 36 -62
65 -59 65 2 0 34 -29 69 -65z m3890 62 c0 -2 -10 -12 -22 -23 l-23 -19 19 23
c18 21 26 27 26 19z m-210 -10 c0 -1 -30 -32 -67 -67 l-68 -65 65 68 c60 62
70 72 70 64z m92 -34 c-17 -21 -49 -56 -73 -78 -23 -22 -11 -5 27 37 74 84 94
101 46 41z m-3992 -70 c35 -43 54 -69 41 -58 -25 22 -129 151 -114 142 5 -3
38 -41 73 -84z m3820 57 c-27 -37 -68 -70 -89 -70 -10 1 6 20 39 50 63 56 81
64 50 20z m220 17 c0 -2 -19 -21 -42 -42 l-43 -40 40 43 c36 39 45 47 45 39z
m-2423 -29 c-3 -8 -6 -5 -6 6 -1 11 2 17 5 13 3 -3 4 -12 1 -19z m1048 -64 c4
-25 3 -24 -8 6 -8 19 -17 46 -20 60 -5 19 -3 17 8 -6 7 -17 16 -44 20 -60z
m-690 -52 c-11 -74 -17 -38 -8 50 6 68 9 75 11 38 2 -25 1 -65 -3 -88z m482
81 c-3 -10 -5 -4 -5 12 0 17 2 24 5 18 2 -7 2 -21 0 -30z m-2426 10 c13 -16
12 -17 -3 -4 -17 13 -22 21 -14 21 2 0 10 -8 17 -17z m484 -14 c43 -38 47 -59
5 -29 -27 19 -58 60 -46 60 3 0 21 -14 41 -31z m1279 -33 c-3 -15 -8 -25 -11
-23 -2 3 -1 17 3 31 3 15 8 25 11 23 2 -3 1 -17 -3 -31z m2486 30 c0 -2 -8
-10 -17 -17 -16 -13 -17 -12 -4 4 13 16 21 21 21 13z m-3889 -33 c13 -16 12
-17 -3 -4 -17 13 -22 21 -14 21 2 0 10 -8 17 -17z m110 0 c13 -16 12 -17 -3
-4 -17 13 -22 21 -14 21 2 0 10 -8 17 -17z m3449 13 c0 -2 -8 -10 -17 -17 -16
-13 -17 -12 -4 4 13 16 21 21 21 13z m-1663 -58 c-2 -13 -4 -5 -4 17 -1 22 1
32 4 23 2 -10 2 -28 0 -40z m1473 48 c0 -2 -8 -10 -17 -17 -16 -13 -17 -12 -4
4 13 16 21 21 21 13z m60 0 c0 -3 -191 -163 -240 -200 -56 -43 12 18 120 108
114 95 120 99 120 92z m-3460 -71 c30 -30 52 -55 49 -55 -2 0 -29 25 -59 55
-30 30 -52 55 -49 55 2 0 29 -25 59 -55z m3360 42 c0 -2 -15 -16 -32 -33 l-33
-29 29 33 c28 30 36 37 36 29z m156 -25 c-3 -4 -33 -30 -68 -57 -71 -54 -60
-38 17 24 50 41 60 48 51 33z m-66 -6 c0 -2 -8 -10 -17 -17 -16 -13 -17 -12
-4 4 13 16 21 21 21 13z m-3655 -86 c44 -44 77 -80 75 -80 -3 0 -41 36 -85 80
-44 44 -77 80 -75 80 3 0 41 -36 85 -80z m95 -35 c63 -63 112 -115 110 -115
-3 0 -57 52 -120 115 -63 63 -112 115 -110 115 3 0 57 -52 120 -115z m181 88
c13 -16 12 -17 -3 -4 -17 13 -22 21 -14 21 2 0 10 -8 17 -17z m110 0 c13 -16
12 -17 -3 -4 -17 13 -22 21 -14 21 2 0 10 -8 17 -17z m-210 -10 c13 -16 12
-17 -3 -4 -10 7 -18 15 -18 17 0 8 8 3 21 -13z m3286 -21 c-14 -15 -41 -35
-59 -45 -32 -17 -32 -17 -8 0 14 10 38 30 55 45 39 36 46 36 12 0z m84 -33
c-39 -34 -90 -75 -113 -92 l-43 -29 45 38 c25 22 72 62 105 91 33 28 64 52 68
52 5 1 -23 -27 -62 -60z m-2738 37 c3 -7 18 -16 33 -20 35 -9 84 -66 56 -66
-5 0 -37 18 -72 41 -48 31 -60 43 -49 50 19 12 26 11 32 -5z m-422 -13 c13
-16 12 -17 -3 -4 -10 7 -18 15 -18 17 0 8 8 3 21 -13z m-91 -18 c13 -14 21
-25 18 -25 -2 0 -15 11 -28 25 -13 14 -21 25 -18 25 2 0 15 -11 28 -25z m3660
22 c0 -2 -19 -21 -42 -42 l-43 -40 40 43 c36 39 45 47 45 39z m-3489 -24 c13
-16 12 -17 -3 -4 -10 7 -18 15 -18 17 0 8 8 3 21 -13z m-36 -13 c10 -11 16
-20 13 -20 -3 0 -13 9 -23 20 -10 11 -16 20 -13 20 3 0 13 -9 23 -20z m3145
-3 c0 -2 -10 -12 -22 -23 l-23 -19 19 23 c18 21 26 27 26 19z m-1603 -29 c-3
-8 -6 -5 -6 6 -1 11 2 17 5 13 3 -3 4 -12 1 -19z m1393 8 c0 -2 -12 -11 -27
-20 l-28 -17 24 20 c23 21 31 25 31 17z m-2841 -142 c75 -50 97 -71 34 -33
-57 34 -145 103 -173 135 -14 16 -4 10 21 -13 26 -23 79 -63 118 -89z m3012
77 c-29 -26 -68 -56 -85 -65 -30 -17 -31 -17 -6 1 13 10 49 39 80 65 72 61 80
61 11 -1z m-2970 22 c13 -16 12 -17 -3 -4 -17 13 -22 21 -14 21 2 0 10 -8 17
-17z m2824 7 c-3 -5 -20 -19 -38 -30 l-32 -22 35 31 c35 32 46 38 35 21z m135
6 c0 -2 -8 -10 -17 -17 -16 -13 -17 -12 -4 4 13 16 21 21 21 13z m-3300 -134
c0 -8 -76 57 -110 94 -19 21 -2 9 38 -26 39 -35 72 -66 72 -68z m3080 124 c0
-2 -8 -10 -17 -17 -16 -13 -17 -12 -4 4 13 16 21 21 21 13z m-2640 -72 c0 -2
-9 0 -20 6 -11 6 -20 13 -20 16 0 2 9 0 20 -6 11 -6 20 -13 20 -16z m2631 8
c-39 -28 -265 -152 -276 -152 -5 0 26 20 70 44 44 24 112 62 150 84 73 43 97
53 56 24z m89 13 c0 -2 -10 -9 -22 -15 -22 -11 -22 -10 -4 4 21 17 26 19 26
11z m387 -10 c0 -8 -14 -26 -31 -38 -46 -35 -65 -43 -31 -13 17 14 26 25 21
26 -10 0 23 40 34 40 4 0 7 -7 7 -15z m-3527 -30 c13 -14 21 -25 18 -25 -2 0
-15 11 -28 25 -13 14 -21 25 -18 25 2 0 15 -11 28 -25z m2955 15 c-3 -5 -12
-10 -18 -10 -7 0 -6 4 3 10 19 12 23 12 15 0z m-1228 -77 c-2 -16 -4 -5 -4 22
0 28 2 40 4 28 2 -13 2 -35 0 -50z m1403 62 c0 -2 -10 -9 -22 -15 -22 -11 -22
-10 -4 4 21 17 26 19 26 11z m-50 -30 c0 -2 -10 -9 -22 -15 -22 -11 -22 -10
-4 4 21 17 26 19 26 11z m-2530 -31 c0 -2 -9 0 -20 6 -11 6 -20 13 -20 16 0 2
9 0 20 -6 11 -6 20 -13 20 -16z m-525 -4 c10 -11 16 -20 13 -20 -3 0 -13 9
-23 20 -10 11 -16 20 -13 20 3 0 13 -9 23 -20z m2915 -5 c0 -2 -10 -9 -22 -15
-22 -11 -22 -10 -4 4 21 17 26 19 26 11z m150 0 c0 -2 -10 -9 -22 -15 -22 -11
-22 -10 -4 4 21 17 26 19 26 11z m-3019 -32 c13 -16 12 -17 -3 -4 -17 13 -22
21 -14 21 2 0 10 -8 17 -17z m359 -9 c0 -2 -9 0 -20 6 -11 6 -20 13 -20 16 0
2 9 0 20 -6 11 -6 20 -13 20 -16z m50 -30 c0 -2 -9 0 -20 6 -11 6 -20 13 -20
16 0 2 9 0 20 -6 11 -6 20 -13 20 -16z m-359 -1 c13 -16 12 -17 -3 -4 -17 13
-22 21 -14 21 2 0 10 -8 17 -17z m2869 12 c0 -3 -36 -23 -80 -45 -44 -22 -80
-38 -80 -35 0 4 146 82 158 85 1 0 2 -2 2 -5z m-2455 -35 c3 -5 2 -10 -4 -10
-5 0 -13 5 -16 10 -3 6 -2 10 4 10 5 0 13 -4 16 -10z m2505 5 c0 -6 -56 -35
-67 -35 -4 1 8 9 27 20 39 22 40 22 40 15z m-1467 -29 l142 -11 3 -73 c4 -93
22 -86 22 9 l0 69 53 0 c52 1 155 12 234 25 l41 7 -14 -42 c-8 -23 -21 -55
-29 -70 -25 -49 -174 -110 -268 -110 l-39 0 7 -397 c4 -219 7 -400 7 -403 1
-26 -3 -52 -7 -49 -2 3 -16 50 -30 105 -25 95 -59 211 -166 562 -27 89 -70
214 -94 278 -25 64 -45 118 -45 121 0 2 9 1 21 -2 11 -4 85 -12 162 -19z
m-943 -21 c14 -8 21 -14 15 -14 -5 0 -21 6 -35 14 -14 8 -20 14 -15 14 6 0 21
-6 35 -14z m2176 -20 c-11 -8 -25 -15 -30 -15 -6 1 0 7 14 15 32 19 40 18 16
0z m114 11 c0 -2 -7 -7 -16 -10 -8 -3 -12 -2 -9 4 6 10 25 14 25 6z m-2610
-42 c0 -2 -9 0 -20 6 -11 6 -20 13 -20 16 0 2 9 0 20 -6 11 -6 20 -13 20 -16z
m717 10 c-3 -3 -12 -4 -19 -1 -8 3 -5 6 6 6 11 1 17 -2 13 -5z m40 -10 c-3 -3
-12 -4 -19 -1 -8 3 -5 6 6 6 11 1 17 -2 13 -5z m1180 0 c-3 -3 -12 -4 -19 -1
-8 3 -5 6 6 6 11 1 17 -2 13 -5z m823 1 c0 -6 -56 -35 -67 -35 -4 1 8 9 27 20
39 22 40 22 40 15z m-1963 -11 c-3 -3 -12 -4 -19 -1 -8 3 -5 6 6 6 11 1 17 -2
13 -5z m180 0 c-3 -3 -12 -4 -19 -1 -8 3 -5 6 6 6 11 1 17 -2 13 -5z m1703
-29 c0 -2 -10 -9 -22 -15 -22 -11 -22 -10 -4 4 21 17 26 19 26 11z m-2504 -63
c-5 -4 -66 26 -66 33 0 3 16 -3 35 -12 19 -9 33 -18 31 -21z m74 -27 c14 -8
21 -14 15 -14 -5 0 -21 6 -35 14 -14 8 -20 14 -15 14 6 0 21 -6 35 -14z m60
-25 c8 -5 11 -10 5 -10 -5 0 -17 5 -25 10 -8 5 -10 10 -5 10 6 0 17 -5 25 -10z
m50 -20 c8 -5 11 -10 5 -10 -5 0 -17 5 -25 10 -8 5 -10 10 -5 10 6 0 17 -5 25
-10z m50 -20 c8 -5 11 -10 5 -10 -5 0 -17 5 -25 10 -8 5 -10 10 -5 10 6 0 17
-5 25 -10z m120 -50 c8 -5 11 -10 5 -10 -5 0 -17 5 -25 10 -8 5 -10 10 -5 10
6 0 17 -5 25 -10z m197 -56 c-3 -3 -12 -4 -19 -1 -8 3 -5 6 6 6 11 1 17 -2 13
-5z m1236 -41 c-7 -2 -19 -2 -25 0 -7 3 -2 5 12 5 14 0 19 -2 13 -5z m-1006
-9 c-3 -3 -12 -4 -19 -1 -8 3 -5 6 6 6 11 1 17 -2 13 -5z m886 -11 c-7 -2 -21
-2 -30 0 -10 3 -4 5 12 5 17 0 24 -2 18 -5z m-90 -10 c-7 -2 -19 -2 -25 0 -7
3 -2 5 12 5 14 0 19 -2 13 -5z m-323 -707 c0 -3 -4 -8 -10 -11 -5 -3 -10 -1
-10 4 0 6 5 11 10 11 6 0 10 -2 10 -4z"/>
<path d="M7283 4376 c30 -27 42 -32 51 -17 8 12 -13 27 -49 35 l-30 8 28 -26z"/>
<path d="M7069 4223 c-13 -16 -12 -17 4 -4 16 13 21 21 13 21 -2 0 -10 -8 -17
-17z"/>
<path d="M6865 3986 c-28 -32 -37 -46 -29 -46 10 1 48 49 42 55 -1 1 -7 -2
-13 -9z"/>
<path d="M6305 3320 c-3 -6 1 -7 9 -4 18 7 21 14 7 14 -6 0 -13 -4 -16 -10z"/>
<path d="M3765 3780 c-3 -5 -1 -10 4 -10 6 0 11 5 11 10 0 6 -2 10 -4 10 -3 0
-8 -4 -11 -10z"/>
<path d="M3860 3735 c19 -19 36 -35 39 -35 3 0 -10 16 -29 35 -19 19 -36 35
-39 35 -3 0 10 -16 29 -35z"/>
<path d="M3945 3660 c10 -11 20 -20 23 -20 3 0 -3 9 -13 20 -10 11 -20 20 -23
20 -3 0 3 -9 13 -20z"/>
<path d="M3990 3626 c0 -2 8 -10 18 -17 15 -13 16 -12 3 4 -13 16 -21 21 -21
13z"/>
<path d="M7175 3310 c-3 -6 1 -7 9 -4 18 7 21 14 7 14 -6 0 -13 -4 -16 -10z"/>
<path d="M2774 8228 l-19 -23 23 19 c21 18 27 26 19 26 -2 0 -12 -10 -23 -22z"/>
<path d="M6290 8010 c8 -5 20 -10 25 -10 6 0 3 5 -5 10 -8 5 -19 10 -25 10 -5
0 -3 -5 5 -10z"/>
<path d="M8200 7885 c13 -14 26 -25 28 -25 3 0 -5 11 -18 25 -13 14 -26 25
-28 25 -3 0 5 -11 18 -25z"/>
<path d="M8040 7896 c0 -2 8 -10 18 -17 15 -13 16 -12 3 4 -13 16 -21 21 -21
13z"/>
<path d="M4686 7791 c-3 -4 6 -6 19 -3 14 2 25 6 25 8 0 8 -39 4 -44 -5z"/>
<path d="M4662 7763 c-12 -2 -20 -9 -17 -14 9 -13 37 -10 59 6 20 15 20 15 0
14 -10 -1 -29 -4 -42 -6z"/>
<path d="M6115 7660 c27 -12 43 -12 25 0 -8 5 -22 9 -30 9 -10 0 -8 -3 5 -9z"/>
<path d="M6200 7631 c8 -5 26 -12 40 -15 l25 -7 -25 15 c-14 9 -32 15 -40 15
-13 0 -13 -1 0 -8z"/>
<path d="M6389 7550 c68 -33 127 -60 130 -60 10 1 -111 64 -177 93 -107 46
-83 29 47 -33z"/>
<path d="M4394 7544 c-18 -14 -18 -14 6 -3 31 14 36 19 24 19 -6 0 -19 -7 -30
-16z"/>
<path d="M7205 7510 c10 -11 20 -20 23 -20 3 0 -3 9 -13 20 -10 11 -20 20 -23
20 -3 0 3 -9 13 -20z"/>
<path d="M6530 7486 c0 -3 9 -10 20 -16 11 -6 20 -8 20 -6 0 3 -9 10 -20 16
-11 6 -20 8 -20 6z"/>
<path d="M7240 7487 c0 -2 15 -16 33 -33 l32 -29 -29 33 c-28 30 -36 37 -36
29z"/>
<path d="M7425 7302 c44 -45 81 -82 84 -82 7 0 -102 113 -134 139 -16 13 6
-12 50 -57z"/>
<path d="M5415 7324 c4 -16 18 -72 32 -124 26 -97 56 -261 49 -267 -2 -2 -8
18 -14 44 -6 26 -16 72 -23 101 -6 29 -14 51 -16 48 -3 -3 0 -27 6 -53 6 -26
13 -74 16 -106 3 -31 15 -83 29 -115 13 -31 26 -70 30 -86 6 -24 9 -27 17 -15
8 10 9 9 4 -8 -8 -28 23 -135 37 -127 6 4 8 -2 3 -16 -5 -15 -4 -20 4 -16 6 4
13 -4 17 -19 3 -14 9 -25 12 -25 4 0 77 69 162 153 157 154 128 117 -54 -70
-59 -60 -97 -107 -94 -115 3 -7 30 -21 61 -31 30 -9 97 -35 148 -57 l94 -39 7
42 c5 23 15 87 23 142 l14 100 -4 -152 -4 -151 39 -36 c22 -20 42 -36 45 -36
10 0 328 162 364 185 20 13 42 25 50 27 8 2 42 33 75 69 34 36 89 92 124 124
34 31 62 61 62 66 0 11 -92 97 -172 161 -179 145 -435 274 -669 339 -109 30
-292 59 -374 59 -55 0 -78 4 -90 16 -15 15 -15 14 -10 -12z m147 -184 l-10
-55 -1 50 c0 28 3 75 7 105 l7 55 3 -50 c1 -27 -1 -75 -6 -105z m184 13 c-17
-80 -34 -117 -22 -48 16 93 29 149 33 138 3 -7 -3 -47 -11 -90z m184 -42 c-12
-39 -26 -73 -31 -76 -8 -6 12 75 33 128 21 53 19 19 -2 -52z m186 -73 c-20
-40 -33 -62 -29 -48 10 41 53 134 59 128 3 -4 -11 -39 -30 -80z m120 -104
c-19 -38 -35 -63 -36 -56 0 17 60 135 66 129 3 -3 -11 -36 -30 -73z m228 4
c-34 -59 -87 -138 -91 -138 -5 0 26 54 65 113 23 34 43 53 26 25z m246 -178
c0 -16 -83 -90 -102 -90 -15 0 -8 47 10 69 36 45 92 58 92 21z"/>
<path d="M7361 7313 c19 -19 48 -44 64 -55 l30 -20 -32 29 c-18 17 -30 32 -28
35 7 7 -33 42 -52 44 -10 2 -3 -11 18 -33z m14 7 c10 -11 16 -20 13 -20 -3 0
-13 9 -23 20 -10 11 -16 20 -13 20 3 0 13 -9 23 -20z"/>
<path d="M4570 7275 c-85 -44 -73 -44 21 0 41 19 67 34 59 34 -8 0 -44 -15
-80 -34z"/>
<path d="M5395 7193 c-12 -84 -16 -106 -21 -114 -3 -5 -23 -77 -44 -161 -22
-84 -57 -211 -78 -283 -21 -71 -35 -131 -31 -133 6 -3 93 17 152 34 11 4 17 0
17 -10 0 -9 5 -16 11 -16 8 0 9 75 4 263 -7 255 -1 422 14 412 5 -2 6 7 3 20
-8 43 -20 37 -27 -12z"/>
<path d="M4425 7200 c-3 -6 1 -7 9 -4 18 7 21 14 7 14 -6 0 -13 -4 -16 -10z"/>
<path d="M6940 7196 c0 -2 8 -10 18 -17 15 -13 16 -12 3 4 -13 16 -21 21 -21
13z"/>
<path d="M7545 7170 c10 -11 20 -20 23 -20 3 0 -3 9 -13 20 -10 11 -20 20 -23
20 -3 0 3 -9 13 -20z"/>
<path d="M7499 7167 c14 -18 51 -42 51 -33 0 3 -15 15 -32 27 -24 17 -29 18
-19 6z"/>
<path d="M7225 7140 c17 -19 39 -43 50 -52 11 -10 16 -18 12 -18 -5 0 29 -42
74 -92 107 -121 106 -120 78 -69 -13 24 -36 53 -51 64 -15 11 -25 23 -23 27 2
3 -35 44 -83 91 -48 46 -73 68 -57 49z m105 -105 c19 -19 32 -35 29 -35 -3 0
-20 16 -39 35 -19 19 -32 35 -29 35 3 0 20 -16 39 -35z"/>
<path d="M7144 7143 c11 -13 16 -23 12 -23 -9 0 28 -53 76 -109 21 -24 38 -49
38 -55 -1 -6 -15 7 -33 29 -72 90 -120 111 -71 32 l26 -42 -43 40 c-98 90
-110 96 -37 19 41 -45 103 -117 138 -160 34 -43 67 -83 74 -89 6 -5 27 -31 46
-57 18 -27 35 -48 37 -48 6 0 -6 19 -34 56 -37 50 -26 53 18 4 23 -25 36 -38
30 -29 -7 9 -11 21 -10 25 4 15 -13 44 -21 39 -5 -3 -11 -2 -14 3 -7 12 27 11
43 -1 19 -16 43 -18 34 -4 -3 7 -15 26 -27 42 -13 19 -15 25 -5 17 9 -6 40
-48 70 -92 30 -44 57 -80 61 -80 8 0 -63 123 -117 203 -43 64 -231 274 -258
289 -18 9 -18 7 4 -23 28 -39 35 -67 13 -48 -7 6 -11 16 -7 22 4 6 1 7 -7 2
-8 -5 -11 -4 -7 2 4 6 -6 21 -21 34 -25 22 -25 22 -8 2z m218 -208 c3 3 11 -2
19 -12 9 -11 10 -14 2 -9 -7 4 -13 3 -13 -1 0 -5 6 -15 13 -23 6 -8 -3 -2 -20
14 -18 17 -33 26 -33 22 0 -5 -7 -3 -15 4 -8 7 -12 17 -9 22 3 5 -2 19 -12 31
-10 12 0 5 22 -16 22 -20 43 -35 46 -32z"/>
<path d="M7570 7136 c0 -2 7 -9 15 -16 13 -11 14 -10 9 4 -5 14 -24 23 -24 12z"/>
<path d="M4319 7033 c-13 -15 -12 -15 9 -4 23 12 28 21 13 21 -5 0 -15 -7 -22
-17z"/>
<path d="M4269 6993 c-13 -16 -12 -17 4 -4 9 7 17 15 17 17 0 8 -8 3 -21 -13z"/>
<path d="M4320 6975 c-7 -8 -8 -15 -2 -15 5 0 15 7 22 15 7 8 8 15 2 15 -5 0
-15 -7 -22 -15z"/>
<path d="M7428 6962 c13 -17 28 -35 34 -39 7 -3 2 8 -10 25 -13 17 -28 35 -34
39 -7 3 -2 -8 10 -25z"/>
<path d="M4195 6880 c-3 -6 1 -7 9 -4 18 7 21 14 7 14 -6 0 -13 -4 -16 -10z"/>
<path d="M7510 6786 c17 -25 34 -46 36 -46 9 0 -45 85 -56 88 -6 2 3 -17 20
-42z"/>
<path d="M7760 6826 c0 -10 60 -116 66 -116 2 0 4 3 4 8 -1 11 -70 118 -70
108z"/>
<path d="M7580 6751 c0 -6 4 -13 10 -16 6 -3 7 1 4 9 -7 18 -14 21 -14 7z"/>
<path d="M7446 6738 c3 -5 10 -6 15 -3 13 9 11 12 -6 12 -8 0 -12 -4 -9 -9z"/>
<path d="M4015 6710 c-3 -6 1 -7 9 -4 18 7 21 14 7 14 -6 0 -13 -4 -16 -10z"/>
<path d="M7466 6708 c3 -5 10 -6 15 -3 13 9 11 12 -6 12 -8 0 -12 -4 -9 -9z"/>
<path d="M7836 6687 c3 -10 9 -15 12 -12 3 3 0 11 -7 18 -10 9 -11 8 -5 -6z"/>
<path d="M7456 6648 c3 -5 10 -6 15 -3 13 9 11 12 -6 12 -8 0 -12 -4 -9 -9z"/>
<path d="M7916 6537 c3 -10 9 -15 12 -12 3 3 0 11 -7 18 -10 9 -11 8 -5 -6z"/>
<path d="M6453 6447 c-105 -120 -263 -273 -271 -261 -4 6 -15 13 -24 17 -10 3
15 -27 54 -68 40 -41 73 -75 74 -75 1 0 26 51 57 114 30 62 74 147 98 187 23
41 53 93 67 117 13 24 22 45 20 47 -2 2 -36 -33 -75 -78z"/>
<path d="M7930 6503 c0 -5 4 -13 9 -18 5 -6 19 -39 31 -75 25 -73 39 -102 40
-82 0 19 -60 171 -71 177 -5 4 -9 2 -9 -2z"/>
<path d="M7970 6491 c0 -6 4 -13 10 -16 6 -3 7 1 4 9 -7 18 -14 21 -14 7z"/>
<path d="M6439 6463 c-13 -16 -12 -17 4 -4 9 7 17 15 17 17 0 8 -8 3 -21 -13z"/>
<path d="M3235 6360 c-29 -57 -39 -63 -33 -20 3 19 1 29 -6 27 -6 -2 -10 -11
-10 -19 1 -8 -4 -15 -11 -15 -7 0 -10 8 -7 19 2 10 -1 18 -7 18 -6 0 -11 -6
-11 -12 0 -7 -7 -21 -15 -32 -13 -17 -14 -15 -9 24 3 28 1 40 -6 35 -5 -3 -10
-14 -10 -23 0 -9 -14 -56 -32 -105 -19 -55 -28 -91 -21 -95 14 -10 24 -42 13
-42 -6 0 -10 -5 -10 -11 0 -6 5 -9 12 -7 14 5 48 -26 49 -44 0 -13 12 17 77
189 17 45 41 100 52 123 11 22 18 40 15 40 -2 0 -16 -22 -30 -50z"/>
<path d="M7691 6376 c7 -15 15 -23 17 -16 3 7 -3 19 -13 28 -15 16 -16 15 -4
-12z"/>
<path d="M2802 6313 c-37 -95 -74 -221 -70 -233 2 -5 27 61 56 146 56 164 65
221 14 87z"/>
<path d="M3012 6343 c-34 -82 -83 -226 -77 -231 3 -3 5 -3 5 0 0 2 23 64 50
138 49 129 63 189 22 93z"/>
<path d="M3603 6378 c-12 -16 -34 -68 -29 -68 7 0 47 72 43 77 -2 2 -8 -2 -14
-9z"/>
<path d="M6339 6353 l-34 -38 38 34 c34 33 42 41 34 41 -2 0 -19 -17 -38 -37z"/>
<path d="M3037 6308 c-42 -102 -97 -252 -93 -256 2 -2 13 21 24 50 12 29 39
100 61 158 44 114 49 149 8 48z"/>
<path d="M5271 6355 c-252 -55 -479 -202 -638 -413 -62 -83 -134 -228 -157
-319 -26 -102 -43 -203 -34 -203 4 0 8 4 8 10 0 16 68 24 85 10 9 -7 17 -11
19 -9 2 2 16 54 30 114 42 172 114 301 237 424 120 121 248 197 439 261 l135
45 3 48 3 47 -33 -1 c-18 0 -62 -7 -97 -14z"/>
<path d="M7737 6350 c3 -11 9 -22 13 -25 5 -3 6 4 3 15 -3 11 -9 22 -13 25 -5
3 -6 -4 -3 -15z"/>
<path d="M6153 6325 c-70 -32 -100 -55 -49 -35 39 14 126 60 126 65 0 7 3 8
-77 -30z"/>
<path d="M4408 6290 c16 -31 49 -91 72 -135 23 -44 44 -82 47 -85 2 -3 31 24
64 59 32 35 58 65 57 65 -18 10 -91 67 -121 95 -24 23 -40 32 -45 25 -4 -6
-16 -16 -27 -22 -17 -9 -24 -6 -48 21 l-29 32 30 -55z"/>
<path d="M3053 6273 c-33 -91 -64 -195 -59 -200 2 -3 14 24 24 59 11 34 32 93
46 131 14 37 22 67 18 67 -4 0 -17 -26 -29 -57z"/>
<path d="M2763 6305 c-3 -9 -3 -18 -1 -21 3 -3 8 4 11 16 6 23 -1 27 -10 5z"/>
<path d="M3535 6244 c-14 -31 -25 -59 -25 -63 1 -8 29 44 46 86 24 56 5 36
-21 -23z"/>
<path d="M2721 6174 c0 -11 3 -14 6 -6 3 7 2 16 -1 19 -3 4 -6 -2 -5 -13z"/>
<path d="M5326 6158 c-156 -42 -291 -117 -410 -229 -123 -114 -206 -257 -247
-419 -12 -47 -26 -91 -33 -99 -9 -12 -3 -13 39 -7 28 4 55 13 61 19 7 7 22 44
34 82 82 257 269 450 514 531 112 37 122 45 120 94 0 22 -3 41 -5 43 -2 2 -35
-5 -73 -15z"/>
<path d="M2706 6133 c-3 -10 -7 -36 -10 -58 -4 -31 -2 -27 9 15 8 30 12 56 10
58 -2 2 -6 -5 -9 -15z"/>
<path d="M3045 6140 c3 -5 8 -10 11 -10 2 0 4 5 4 10 0 6 -5 10 -11 10 -5 0
-7 -4 -4 -10z"/>
<path d="M8101 6114 c0 -11 3 -14 6 -6 3 7 2 16 -1 19 -3 4 -6 -2 -5 -13z"/>
<path d="M3035 6110 c3 -5 8 -10 11 -10 2 0 4 5 4 10 0 6 -5 10 -11 10 -5 0
-7 -4 -4 -10z"/>
<path d="M3760 6110 c8 -5 20 -10 25 -10 6 0 3 5 -5 10 -8 5 -19 10 -25 10 -5
0 -3 -5 5 -10z"/>
<path d="M7891 6074 c0 -10 9 -50 19 -89 21 -82 26 -48 5 38 -14 61 -26 85
-24 51z"/>
<path d="M8111 6075 c0 -11 8 -56 19 -100 15 -67 18 -74 19 -40 0 22 -8 67
-18 100 -11 33 -19 51 -20 40z"/>
<path d="M6050 6068 c0 -4 29 -65 64 -135 35 -71 73 -158 85 -195 26 -87 45
-229 37 -285 -6 -43 -5 -44 16 -29 15 11 34 13 66 9 l45 -6 -6 69 c-11 128
-77 296 -160 405 -52 70 -147 176 -147 167z"/>
<path d="M8080 6049 c0 -13 5 -31 10 -39 7 -11 8 -5 4 20 -8 43 -14 51 -14 19z"/>
<path d="M2391 6044 c0 -11 3 -14 6 -6 3 7 2 16 -1 19 -3 4 -6 -2 -5 -13z"/>
<path d="M2721 6045 c0 -11 -4 -31 -7 -45 -5 -19 -4 -22 5 -14 7 6 11 26 8 45
-2 19 -5 25 -6 14z"/>
<path d="M2970 6020 c-6 -23 -9 -47 -7 -53 2 -6 9 10 16 37 6 27 10 51 7 53
-3 3 -10 -14 -16 -37z"/>
<path d="M3010 6049 c0 -5 5 -7 10 -4 6 3 10 8 10 11 0 2 -4 4 -10 4 -5 0 -10
-5 -10 -11z"/>
<path d="M2931 6024 c0 -11 3 -14 6 -6 3 7 2 16 -1 19 -3 4 -6 -2 -5 -13z"/>
<path d="M2682 6010 c0 -14 2 -19 5 -12 2 6 2 18 0 25 -3 6 -5 1 -5 -13z"/>
<path d="M2997 5983 c-4 -3 -7 -11 -7 -17 0 -6 5 -5 12 2 6 6 9 14 7 17 -3 3
-9 2 -12 -2z"/>
<path d="M5312 5946 c-201 -82 -354 -232 -426 -421 -15 -38 -31 -81 -37 -94
-5 -13 -8 -25 -7 -26 2 -2 32 3 68 9 l65 12 45 88 c58 114 138 201 243 266 45
28 92 53 105 56 16 5 22 14 22 33 0 14 5 33 10 41 7 10 9 -24 9 -105 -1 -66
-3 -112 -6 -102 -6 24 -12 22 -79 -22 -74 -49 -133 -109 -178 -185 -51 -85
-49 -89 27 -81 68 7 69 7 162 126 28 35 55 80 61 99 10 30 12 14 13 -107 1
-79 3 -143 6 -143 14 0 85 52 107 79 38 44 53 96 52 181 0 93 -21 142 -95 227
-30 34 -61 71 -69 82 -15 21 -15 21 -98 -13z"/>
<path d="M8101 5964 c0 -11 3 -14 6 -6 3 7 2 16 -1 19 -3 4 -6 -2 -5 -13z"/>
<path d="M7931 5884 c0 -11 3 -14 6 -6 3 7 2 16 -1 19 -3 4 -6 -2 -5 -13z"/>
<path d="M2701 5874 c0 -11 3 -14 6 -6 3 7 2 16 -1 19 -3 4 -6 -2 -5 -13z"/>
<path d="M2351 5834 c0 -11 3 -14 6 -6 3 7 2 16 -1 19 -3 4 -6 -2 -5 -13z"/>
<path d="M6818 5498 c12 -6 22 -19 22 -28 0 -10 7 -23 15 -30 13 -11 13 -15 3
-21 -9 -6 -6 -9 9 -9 12 0 25 -5 29 -11 4 -8 31 -10 78 -6 39 2 81 1 93 -4 24
-9 53 -3 53 11 0 4 -12 11 -27 15 -16 3 -83 26 -150 51 -114 41 -178 57 -125
32z"/>
<path d="M6113 5388 c-42 -9 -43 -9 -64 -81 -45 -150 -98 -240 -207 -350 -101
-103 -227 -173 -397 -224 -28 -8 -30 -12 -33 -62 -3 -44 -1 -52 10 -44 7 6 33
14 58 18 131 21 306 112 417 218 104 98 191 235 227 357 26 91 43 170 37 174
-3 1 -25 -1 -48 -6z"/>
<path d="M5139 5253 c-270 -202 -364 -263 -448 -296 -42 -16 -78 -31 -79 -32
-7 -7 86 -141 133 -194 136 -149 369 -266 590 -293 l40 -5 0 67 0 67 -75 6
c-96 8 -170 30 -198 60 -26 28 -23 31 48 67 49 25 231 193 243 225 4 11 1 40
-6 65 -12 40 -16 45 -41 43 -44 -3 -115 -51 -149 -101 -56 -80 -87 -110 -132
-128 -68 -25 -152 -6 -213 50 -45 40 -45 52 -4 77 81 49 544 383 549 395 3 8
2 25 -1 39 -5 20 -13 25 -39 25 -26 0 -69 -27 -218 -137z"/>
<path d="M5602 5383 c-39 -4 -45 -8 -78 -61 -20 -31 -54 -76 -75 -99 -36 -40
-39 -47 -39 -103 l0 -60 30 19 c126 76 223 186 254 289 8 24 9 24 -92 15z"/>
<path d="M5875 5383 c-32 -8 -45 -23 -77 -87 -40 -80 -76 -131 -129 -185 -48
-48 -154 -120 -209 -141 -19 -8 -38 -19 -42 -24 -10 -15 -10 -104 0 -110 13
-8 135 37 198 74 90 53 232 200 276 285 29 58 68 165 68 189 0 7 -55 6 -85 -1z"/>
<path d="M6345 5375 c-16 -7 -44 -11 -60 -8 l-31 5 -18 -84 c-79 -367 -356
-645 -723 -724 l-83 -17 0 -43 c0 -23 -3 -49 -6 -57 -7 -19 57 -13 182 18 174
44 306 118 446 253 168 161 263 338 308 567 10 55 18 100 17 101 -1 1 -15 -4
-32 -11z"/>
<path d="M6540 5371 c0 -5 9 -7 20 -4 11 3 20 7 20 9 0 2 -9 4 -20 4 -11 0
-20 -4 -20 -9z"/>
<path d="M6375 4880 c-8 -13 -1 -24 14 -19 6 3 7 10 2 18 -6 10 -10 10 -16 1z"/>
<path d="M2856 4362 c-9 -28 38 -123 47 -98 4 9 3 15 -2 12 -5 -3 -12 1 -15
10 -8 22 -8 26 4 19 6 -3 7 1 4 9 -3 9 -11 13 -16 10 -6 -4 -8 1 -4 12 3 11 2
25 -3 33 -7 11 -10 9 -15 -7z"/>
<path d="M4309 4293 c-13 -16 -12 -17 4 -4 9 7 17 15 17 17 0 8 -8 3 -21 -13z"/>
<path d="M2886 4197 c3 -10 9 -15 12 -12 3 3 0 11 -7 18 -10 9 -11 8 -5 -6z"/>
<path d="M2915 4140 c9 -16 18 -30 21 -30 2 0 -2 14 -11 30 -9 17 -18 30 -21
30 -2 0 2 -13 11 -30z"/>
<path d="M7882 4095 c-17 -37 -14 -45 4 -12 9 16 14 31 11 33 -2 2 -9 -7 -15
-21z"/>
<path d="M2940 4091 c0 -5 5 -13 10 -16 6 -3 10 -2 10 4 0 5 -4 13 -10 16 -5
3 -10 2 -10 -4z"/>
<path d="M7850 4030 c-6 -11 -8 -20 -6 -20 3 0 10 9 16 20 6 11 8 20 6 20 -3
0 -10 -9 -16 -20z"/>
<path d="M7409 3563 l-24 -28 28 24 c15 14 27 26 27 28 0 8 -8 1 -31 -24z"/>
<path d="M7100 3468 c-38 -35 -43 -41 -15 -20 37 28 83 73 74 72 -2 -1 -29
-24 -59 -52z"/>
<path d="M7324 3468 l-29 -33 33 29 c30 28 37 36 29 36 -2 0 -16 -15 -33 -32z"/>
<path d="M5618 1383 c6 -2 18 -2 25 0 6 3 1 5 -13 5 -14 0 -19 -2 -12 -5z"/>
<path d="M515 4537 c-14 -22 -13 -35 10 -148 232 -1141 853 -2160 1765 -2895
504 -406 1115 -720 1765 -907 608 -175 1326 -230 1964 -151 624 77 1243 276
1796 579 664 362 1250 889 1695 1523 389 556 682 1256 801 1914 11 62 11 69
-6 88 -20 23 -63 26 -87 8 -9 -8 -25 -56 -38 -118 -109 -532 -299 -1032 -565
-1490 -461 -797 -1147 -1449 -1970 -1871 -546 -280 -1080 -442 -1700 -515
-191 -23 -821 -26 -1015 -6 -558 60 -1023 186 -1550 422 -286 128 -610 320
-885 526 -345 258 -696 607 -959 954 -239 315 -442 666 -606 1050 -110 257
-229 644 -285 930 -21 108 -35 130 -80 130 -25 0 -39 -6 -50 -23z"/>
</g>
</svg>
